<?xml version="1.0" encoding="utf-8"?>
<!DOCTYPE svg PUBLIC "-//W3C//DTD SVG 20010904//EN" "http://www.w3.org/TR/2001/REC-SVG-20010904/DTD/svg10.dtd">
<svg version="1.0" xmlns="http://www.w3.org/2000/svg" width="514pt" height="514pt" viewBox="0 0 514 514" style="" preserveAspectRatio="xMidYMid meet">
<g fill="#1D1D1BFF" stroke="#1D1D1BFF">
<path d="M 238.699 164.091 C 230.120 164.835 223.559 166.957 217.611 170.913 C 215.472 172.336 212.630 174.101 211.297 174.835 C 209.963 175.570 208.590 176.920 208.245 177.835 C 207.335 180.253 202.014 187.462 201.923 186.400 C 201.881 185.905 201.686 186.355 201.490 187.400 C 201.294 188.445 200.615 189.620 199.981 190.012 C 199.348 190.403 198.904 190.898 198.996 191.112 C 199.393 192.033 197.712 197.000 197.003 197.000 C 196.573 197.000 196.281 197.563 196.352 198.250 C 196.577 200.417 193.838 210.000 192.994 210.000 C 192.550 210.000 192.423 210.900 192.710 212.000 C 192.998 213.100 192.745 214.000 192.148 214.000 C 191.551 214.000 191.322 214.675 191.638 215.500 C 191.955 216.325 191.689 217.000 191.048 217.000 C 190.407 217.000 190.107 217.365 190.383 217.810 C 191.002 218.813 188.994 226.999 188.128 227.002 C 187.783 227.003 187.399 228.432 187.277 230.177 C 187.154 231.921 186.704 233.608 186.277 233.925 C 185.849 234.241 185.500 234.950 185.500 235.500 C 185.500 237.856 180.647 253.000 179.892 253.000 C 179.436 253.000 179.322 253.675 179.638 254.500 C 179.964 255.349 179.662 256.000 178.940 256.000 C 178.240 256.000 177.927 256.261 178.246 256.579 C 178.734 257.067 177.552 261.643 175.297 268.000 C 174.335 270.712 175.120 281.088 176.606 285.302 C 177.408 287.575 179.260 291.474 180.721 293.967 C 182.182 296.460 183.292 298.725 183.189 299.000 C 183.085 299.275 183.409 299.500 183.909 299.500 C 184.410 299.500 185.698 300.625 186.772 302.000 C 188.405 304.091 188.731 306.141 188.765 314.531 C 188.811 326.137 190.058 331.768 193.239 334.749 C 196.700 337.991 205.000 340.875 205.000 338.836 C 205.000 338.258 205.675 338.045 206.500 338.362 C 207.325 338.678 208.000 338.563 208.000 338.105 C 208.000 337.180 219.771 331.667 221.746 331.667 C 222.436 331.667 223.000 331.364 223.000 330.994 C 223.000 330.624 224.046 329.844 225.325 329.262 C 227.043 328.479 229.066 328.583 233.075 329.663 C 236.877 330.687 241.044 330.948 247.000 330.538 C 258.520 329.743 259.000 329.676 259.000 328.853 C 259.000 328.458 260.002 327.817 261.226 327.428 C 262.451 327.040 268.790 321.497 275.313 315.111 C 281.837 308.725 287.473 303.613 287.837 303.750 C 288.202 303.888 288.500 303.576 288.500 303.058 C 288.500 301.984 303.933 287.522 304.125 288.417 C 304.194 288.737 304.306 288.438 304.375 287.750 C 304.444 287.063 305.100 286.500 305.833 286.500 C 306.567 286.500 306.840 286.173 306.440 285.774 C 306.041 285.374 306.507 284.742 307.478 284.370 C 308.448 283.998 311.031 281.752 313.218 279.379 C 315.405 277.006 317.693 275.163 318.302 275.282 C 318.911 275.402 319.435 275.050 319.466 274.500 C 319.497 273.950 321.410 271.011 323.717 267.968 C 327.340 263.189 330.624 257.005 333.525 249.500 C 333.950 248.400 334.204 246.530 334.090 245.346 C 333.975 244.161 334.279 242.946 334.763 242.646 C 335.911 241.937 335.397 235.908 333.601 229.016 C 332.815 225.999 332.384 223.187 332.645 222.766 C 332.905 222.345 332.615 222.000 332.000 222.000 C 331.385 222.000 331.136 221.588 331.447 221.085 C 331.758 220.582 331.664 220.020 331.238 219.835 C 330.812 219.651 329.004 217.203 327.221 214.395 C 325.437 211.587 323.082 208.479 321.989 207.490 C 320.895 206.500 320.000 205.185 320.000 204.567 C 320.000 203.503 318.190 201.728 314.836 199.500 C 308.936 195.581 299.022 187.581 298.340 186.188 C 297.885 185.259 297.637 185.107 297.789 185.848 C 297.969 186.726 297.163 186.487 295.481 185.164 C 294.060 184.046 292.920 182.877 292.948 182.566 C 292.977 182.254 293.000 182.234 293.000 182.520 C 293.000 182.807 291.200 182.122 289.000 181.000 C 286.800 179.878 285.000 178.492 285.000 177.921 C 285.000 177.349 284.550 177.160 284.000 177.500 C 283.450 177.840 283.000 177.641 283.000 177.059 C 283.000 176.477 282.663 176.089 282.250 176.198 C 280.843 176.570 277.000 174.868 277.000 173.874 C 277.000 173.328 276.550 173.160 276.000 173.500 C 275.450 173.840 275.000 173.641 275.000 173.059 C 275.000 172.477 274.663 172.095 274.250 172.210 C 273.838 172.326 269.836 170.989 265.357 169.239 C 260.879 167.490 255.254 165.759 252.857 165.392 C 250.461 165.026 248.050 164.432 247.500 164.071 C 246.950 163.710 242.990 163.719 238.699 164.091 M 256.727 177.129 C 273.199 182.182 302.562 200.830 313.285 213.048 C 325.032 226.434 327.226 239.973 320.020 254.612 C 317.722 259.280 314.403 263.342 307.209 270.295 C 274.376 302.025 258.507 316.733 255.274 318.429 C 253.252 319.489 249.826 320.389 247.660 320.429 L 243.724 320.500 250.528 312.758 C 264.591 296.758 272.252 284.606 277.346 270.222 C 280.005 262.716 280.437 260.106 280.448 251.500 C 280.463 239.817 278.743 234.931 272.066 227.688 C 266.225 221.351 259.428 218.550 249.896 218.551 C 243.107 218.552 241.467 218.959 234.599 222.353 C 217.608 230.751 202.376 250.874 191.635 279.113 C 190.461 282.201 189.050 284.901 188.500 285.113 C 187.239 285.601 185.131 279.550 185.056 275.230 C 185.025 273.431 187.437 264.431 190.415 255.230 C 193.394 246.028 198.597 229.275 201.977 218.000 C 205.358 206.725 209.250 195.570 210.627 193.210 C 220.587 176.145 235.997 170.769 256.727 177.129 M 255.776 229.558 C 256.050 229.283 257.450 229.873 258.887 230.867 C 260.324 231.861 262.255 232.946 263.177 233.278 C 264.861 233.884 267.962 239.904 269.471 245.500 C 270.732 250.175 270.113 258.319 268.115 263.334 C 267.494 264.893 267.217 266.542 267.499 266.999 C 267.781 267.455 267.540 267.987 266.962 268.179 C 266.384 268.372 265.835 269.535 265.743 270.765 C 265.650 271.994 265.275 273.000 264.909 273.000 C 264.282 273.000 261.899 277.985 261.702 279.707 C 261.653 280.143 260.815 281.356 259.841 282.401 C 258.866 283.447 258.276 284.638 258.529 285.047 C 258.782 285.456 258.288 286.059 257.431 286.388 C 256.574 286.717 256.124 287.392 256.431 287.888 C 256.738 288.384 256.252 289.073 255.351 289.419 C 254.451 289.764 253.984 290.317 254.314 290.648 C 254.645 290.978 253.922 292.077 252.707 293.091 C 251.493 294.104 250.938 294.948 251.473 294.967 C 252.007 294.985 251.445 295.701 250.223 296.557 C 249.000 297.413 248.000 298.493 248.000 298.957 C 248.000 299.421 246.380 301.533 244.401 303.650 C 235.113 313.586 235.464 313.391 234.530 309.135 C 234.184 307.559 233.023 305.328 231.950 304.177 C 230.878 303.026 230.000 301.650 230.000 301.120 C 230.000 299.687 221.849 292.975 220.855 293.589 C 220.385 293.880 220.000 293.615 220.000 293.000 C 220.000 292.385 219.550 292.160 219.000 292.500 C 218.450 292.840 218.000 292.673 218.000 292.130 C 218.000 290.416 207.124 288.718 202.101 289.648 C 199.572 290.117 198.071 290.131 198.767 289.681 C 199.463 289.230 199.774 288.443 199.457 287.931 C 199.141 287.419 199.287 287.000 199.783 287.000 C 200.611 287.000 203.232 279.864 202.951 278.373 C 202.884 278.016 203.210 277.448 203.675 277.112 C 204.820 276.284 209.564 265.809 209.250 264.802 C 209.113 264.361 209.378 264.000 209.839 264.000 C 210.681 264.000 212.689 260.299 212.775 258.590 C 212.800 258.089 213.546 257.274 214.431 256.778 C 215.317 256.283 215.810 255.502 215.527 255.043 C 215.243 254.585 215.712 253.941 216.569 253.612 C 217.426 253.283 217.876 252.608 217.569 252.112 C 217.262 251.616 217.684 250.952 218.506 250.636 C 219.328 250.321 220.000 249.664 220.000 249.177 C 220.000 247.774 232.442 235.698 236.048 233.601 C 241.383 230.498 250.174 228.193 252.889 229.184 C 254.202 229.664 255.502 229.832 255.776 229.558 M 215.236 303.675 C 217.031 304.633 218.838 305.435 219.250 305.458 C 219.663 305.481 220.085 305.950 220.190 306.500 C 220.487 308.062 223.434 312.987 224.077 312.994 C 224.394 312.997 224.456 314.345 224.215 315.990 C 223.973 317.634 223.376 318.733 222.888 318.431 C 222.400 318.129 222.000 318.434 222.000 319.108 C 222.000 319.782 221.738 320.071 221.417 319.751 C 221.097 319.430 216.934 320.970 212.167 323.173 C 199.943 328.821 200.366 328.857 200.167 322.160 C 200.075 319.047 199.737 313.350 199.415 309.500 C 198.859 302.859 198.949 302.447 201.165 301.469 C 204.006 300.214 210.722 301.267 215.236 303.675 "/></g>
<g fill="#1D1D1BFF" stroke="#1D1D1BFF">
<path d="M 360.000 311.262 C 356.425 311.698 352.040 312.156 350.254 312.278 C 348.469 312.400 347.007 312.802 347.004 313.171 C 347.000 313.833 341.647 315.303 340.378 314.990 C 340.018 314.902 339.448 315.273 339.112 315.815 C 338.775 316.357 337.600 316.958 336.500 317.150 C 335.400 317.343 334.275 317.793 334.000 318.150 C 333.725 318.508 332.600 318.958 331.500 319.150 C 330.400 319.343 329.275 319.757 329.000 320.072 C 327.889 321.342 309.812 328.002 308.939 327.463 C 308.423 327.143 308.000 327.316 308.000 327.847 C 308.000 328.932 299.009 332.266 298.985 331.189 C 298.976 330.810 298.585 331.106 298.115 331.848 C 297.646 332.589 296.078 333.264 294.631 333.348 C 293.185 333.431 292.001 333.760 292.001 334.077 C 292.000 334.394 288.377 335.915 283.948 337.457 C 279.520 338.998 274.457 341.236 272.698 342.428 C 270.939 343.621 268.713 344.898 267.750 345.267 C 266.788 345.636 266.000 346.601 266.000 347.412 C 266.000 348.223 265.160 349.475 264.134 350.193 C 263.108 350.912 262.189 351.829 262.091 352.232 C 261.656 354.023 258.714 360.548 258.138 361.000 C 257.787 361.275 257.404 362.820 257.287 364.433 C 257.169 366.047 256.767 368.072 256.393 368.933 C 256.019 369.795 255.665 371.230 255.606 372.123 C 255.501 373.733 239.003 387.804 238.996 386.290 C 238.994 385.855 238.127 386.919 237.070 388.653 C 234.736 392.480 232.775 399.207 233.774 399.956 C 234.173 400.255 235.179 401.850 236.010 403.500 C 237.107 405.681 239.974 407.770 246.510 411.149 C 251.454 413.706 256.015 416.267 256.643 416.839 C 257.272 417.411 258.060 417.607 258.393 417.273 C 258.727 416.940 259.000 417.218 259.000 417.892 C 259.000 418.566 259.406 418.867 259.903 418.560 C 260.399 418.253 261.276 419.352 261.851 421.001 C 262.426 422.651 262.662 424.000 262.377 424.000 C 262.091 424.000 262.568 424.711 263.438 425.581 C 264.307 426.450 264.786 427.537 264.503 427.995 C 264.219 428.454 264.328 428.980 264.744 429.165 C 265.160 429.349 267.242 431.667 269.371 434.316 C 271.500 436.964 275.100 440.335 277.371 441.806 C 279.642 443.278 281.725 444.710 282.000 444.991 C 282.275 445.271 283.400 445.628 284.500 445.784 C 285.600 445.940 290.775 446.733 296.000 447.546 C 301.225 448.358 306.175 449.052 307.000 449.087 C 312.096 449.303 324.695 451.409 325.706 452.213 C 326.370 452.740 327.365 452.892 327.919 452.550 C 328.899 451.944 341.006 453.574 344.000 454.715 C 344.825 455.030 346.738 455.189 348.250 455.068 C 349.763 454.948 351.000 455.221 351.000 455.675 C 351.000 457.001 372.294 457.240 378.671 455.985 C 381.877 455.354 384.854 454.891 385.286 454.955 C 385.718 455.019 386.788 454.354 387.665 453.478 C 388.541 452.602 389.838 452.107 390.546 452.379 C 391.255 452.651 392.094 452.199 392.410 451.373 C 392.727 450.548 393.392 450.124 393.888 450.431 C 394.384 450.738 395.172 450.204 395.639 449.244 C 396.105 448.285 396.392 448.018 396.276 448.652 C 396.160 449.286 398.518 447.351 401.516 444.353 C 404.515 441.355 406.484 439.201 405.894 439.566 C 405.303 439.931 405.971 438.490 407.378 436.363 C 413.703 426.807 417.414 406.940 415.666 392.000 C 415.312 388.975 414.855 383.125 414.652 379.000 C 414.448 374.875 413.945 370.713 413.534 369.750 C 413.123 368.788 413.045 367.325 413.362 366.500 C 413.678 365.675 413.449 365.000 412.852 365.000 C 412.238 365.000 411.971 363.930 412.238 362.535 C 412.497 361.179 412.323 359.941 411.850 359.783 C 411.378 359.626 410.881 357.588 410.746 355.254 C 410.611 352.920 410.198 351.008 409.829 351.005 C 409.206 351.000 407.601 345.759 407.531 343.500 C 407.514 342.950 406.933 341.901 406.241 341.169 C 405.548 340.438 405.237 339.425 405.550 338.919 C 405.862 338.414 405.725 338.000 405.244 338.000 C 404.764 338.000 403.672 336.538 402.817 334.750 C 401.963 332.963 399.138 329.138 396.540 326.250 C 393.941 323.363 391.969 320.947 392.157 320.882 C 392.346 320.816 392.176 320.812 391.780 320.872 C 391.384 320.931 390.520 319.972 389.861 318.740 C 389.202 317.508 388.688 316.940 388.721 317.478 C 388.753 318.016 386.373 317.341 383.433 315.978 C 380.493 314.615 378.068 313.136 378.044 312.691 C 378.020 312.246 377.609 312.123 377.132 312.419 C 376.654 312.714 374.067 312.396 371.382 311.711 C 368.092 310.873 364.380 310.727 360.000 311.262 M 378.708 325.125 C 390.635 330.810 397.339 342.288 402.108 365.188 C 404.591 377.111 404.994 381.312 405.042 395.755 C 405.120 419.346 402.128 429.219 392.209 438.108 C 381.907 447.338 372.121 448.576 344.500 444.142 C 322.292 440.577 307.086 438.374 298.000 437.403 C 289.291 436.473 284.168 434.555 280.254 430.761 C 278.464 429.027 277.000 427.352 277.000 427.040 C 277.000 426.728 282.063 426.809 288.250 427.221 C 309.413 428.629 331.558 425.384 344.724 418.944 C 353.152 414.822 361.255 407.217 364.706 400.190 C 368.530 392.402 368.670 381.878 365.047 374.516 C 354.620 353.325 323.674 347.362 282.251 358.562 C 277.163 359.937 272.326 361.321 271.501 361.638 C 268.501 362.789 270.038 358.910 274.250 354.698 C 278.890 350.059 278.683 350.159 297.500 343.435 C 304.650 340.881 319.625 335.220 330.779 330.856 C 358.190 320.130 366.217 319.170 378.708 325.125 M 334.986 365.521 C 342.719 367.388 348.320 370.498 352.774 375.398 C 354.575 377.379 355.807 379.000 355.511 379.000 C 355.215 379.000 355.629 380.570 356.431 382.490 C 357.961 386.150 357.905 387.583 356.040 392.500 C 353.413 399.424 352.456 400.762 347.775 404.049 C 345.072 405.947 342.217 408.095 341.430 408.821 C 340.644 409.548 340.000 409.929 340.000 409.668 C 340.000 409.406 337.638 410.091 334.750 411.191 C 324.761 414.993 316.250 416.152 297.736 416.230 C 287.965 416.271 279.697 416.031 279.362 415.695 C 279.027 415.360 279.105 414.279 279.535 413.293 C 279.965 412.307 280.246 411.163 280.159 410.750 C 280.071 410.338 280.477 410.000 281.059 410.000 C 281.641 410.000 281.864 409.588 281.553 409.085 C 281.242 408.582 281.463 408.012 282.043 407.819 C 283.521 407.326 285.535 394.780 284.515 392.423 C 284.057 391.365 283.752 390.167 283.838 389.761 C 284.135 388.346 280.776 381.000 279.832 381.000 C 279.310 381.000 279.118 380.619 279.405 380.153 C 279.693 379.687 278.595 378.028 276.964 376.466 C 273.958 373.586 273.238 372.000 274.935 372.000 C 275.449 372.000 277.137 371.486 278.685 370.859 C 280.233 370.231 282.206 369.637 283.070 369.539 C 284.770 369.346 293.564 367.131 296.000 366.282 C 296.825 365.994 299.666 365.563 302.313 365.324 C 304.960 365.085 307.969 364.576 308.998 364.194 C 312.115 363.038 328.079 363.853 334.986 365.521 M 266.679 381.901 C 266.227 381.955 266.564 382.707 267.429 383.571 C 268.293 384.436 269.056 384.886 269.125 384.571 C 269.194 384.257 269.306 384.466 269.375 385.036 C 269.444 385.607 269.950 386.394 270.500 386.786 C 271.050 387.179 271.650 388.400 271.834 389.500 C 272.017 390.600 272.516 391.864 272.943 392.310 C 274.623 394.062 270.781 406.781 268.065 408.460 C 267.543 408.783 261.950 406.475 255.636 403.332 L 244.156 397.618 246.078 395.174 C 247.135 393.830 248.000 393.049 248.000 393.438 C 248.000 393.827 249.186 393.212 250.635 392.073 C 252.084 390.933 252.984 390.000 252.635 390.000 C 252.286 390.000 252.241 390.020 252.535 390.045 C 252.830 390.069 254.240 389.169 255.670 388.045 C 257.100 386.920 257.984 386.000 257.635 386.000 C 257.286 386.000 257.241 386.020 257.535 386.045 C 258.500 386.126 262.944 382.278 262.453 381.786 C 262.190 381.523 263.217 381.419 264.737 381.555 C 266.257 381.690 267.130 381.846 266.679 381.901 "/></g>
<g fill="#1D1D1BFF" stroke="#1D1D1BFF">
<path d="M 119.000 291.319 C 119.000 291.822 117.875 292.018 116.500 291.755 C 115.125 291.492 114.000 291.580 114.000 291.950 C 114.000 292.626 104.617 295.323 103.384 295.001 C 103.021 294.907 102.448 295.234 102.112 295.728 C 101.775 296.223 95.650 299.692 88.500 303.437 C 81.350 307.182 74.713 310.935 73.750 311.778 C 72.788 312.621 72.000 312.955 72.000 312.520 C 72.000 312.086 71.049 312.940 69.886 314.418 C 68.723 315.896 67.586 316.920 67.359 316.692 C 67.132 316.465 65.302 317.785 63.293 319.626 C 61.283 321.467 59.453 322.786 59.225 322.559 C 58.998 322.331 57.468 323.675 55.826 325.546 C 54.183 327.416 52.538 328.846 52.170 328.723 C 51.801 328.600 51.367 328.950 51.204 329.500 C 51.041 330.050 49.646 331.850 48.105 333.500 C 46.563 335.150 44.559 337.613 43.651 338.973 C 42.743 340.332 41.944 341.120 41.875 340.723 C 41.806 340.325 41.693 340.338 41.624 340.750 C 41.555 341.163 40.239 344.307 38.699 347.737 C 33.946 358.327 33.282 370.720 36.951 380.372 C 37.458 381.704 37.601 383.066 37.269 383.397 C 36.938 383.729 37.137 384.000 37.712 384.000 C 38.594 384.000 41.162 388.772 41.613 391.250 C 41.689 391.663 41.806 391.714 41.875 391.365 C 41.944 391.016 42.975 392.028 44.168 393.615 C 45.360 395.202 47.589 397.850 49.122 399.500 C 50.654 401.150 51.928 402.838 51.954 403.250 C 51.979 403.663 52.000 403.737 52.000 403.415 C 52.000 402.516 61.483 411.068 61.625 412.096 C 61.694 412.593 61.806 412.737 61.875 412.415 C 62.072 411.493 71.500 420.077 71.500 421.179 C 71.500 421.722 71.772 421.895 72.104 421.563 C 72.436 421.231 74.510 422.881 76.714 425.230 C 78.917 427.578 81.570 429.999 82.610 430.609 C 83.649 431.219 84.556 432.231 84.625 432.859 C 84.694 433.487 84.806 433.691 84.875 433.313 C 84.944 432.935 89.429 436.977 94.843 442.296 C 109.745 456.937 119.044 460.193 135.501 456.532 C 142.856 454.896 143.445 454.897 147.124 456.556 C 149.256 457.517 151.000 458.712 151.000 459.211 C 151.000 459.710 151.422 459.857 151.937 459.539 C 152.864 458.966 164.226 463.910 164.795 465.134 C 164.957 465.482 166.982 465.318 169.295 464.768 C 171.608 464.219 174.063 463.746 174.750 463.718 C 175.438 463.690 176.000 463.400 176.000 463.073 C 176.000 462.747 177.039 461.359 178.309 459.990 C 181.415 456.640 181.141 458.434 181.005 442.344 L 180.902 430.188 184.870 426.016 C 187.052 423.722 188.788 421.768 188.728 421.673 C 188.668 421.578 189.924 418.800 191.520 415.500 C 194.043 410.282 194.415 408.392 194.373 401.000 C 194.335 394.221 193.783 391.119 191.646 385.682 C 190.172 381.932 189.225 378.445 189.542 377.932 C 189.859 377.419 189.713 377.000 189.217 377.000 C 188.396 377.000 184.500 365.851 184.500 363.500 C 184.500 362.950 184.215 362.275 183.868 362.000 C 182.805 361.160 175.070 335.696 175.611 334.820 C 175.890 334.369 175.727 334.000 175.248 334.000 C 174.473 334.000 171.569 325.043 171.519 322.500 C 171.509 321.950 171.245 321.275 170.934 321.000 C 170.623 320.725 168.942 317.983 167.200 314.906 C 165.457 311.829 162.043 307.176 159.612 304.566 C 157.182 301.956 155.150 299.636 155.096 299.410 C 155.043 299.185 155.000 299.251 155.000 299.557 C 155.000 299.863 154.000 299.413 152.777 298.557 C 151.555 297.701 150.880 296.944 151.277 296.875 C 151.675 296.806 151.663 296.689 151.250 296.613 C 149.146 296.230 144.000 293.658 144.000 292.990 C 144.000 292.568 143.438 292.266 142.750 292.320 C 142.063 292.374 139.475 292.112 137.000 291.738 C 129.434 290.595 119.000 290.352 119.000 291.319 M 139.414 303.054 C 146.145 305.572 153.448 312.005 157.676 319.140 C 159.557 322.315 163.927 334.332 168.397 348.623 C 172.547 361.891 177.704 377.687 179.858 383.724 C 182.012 389.762 184.023 396.457 184.328 398.601 C 184.925 402.793 183.054 411.631 181.642 411.297 C 181.170 411.186 178.669 406.236 176.084 400.297 C 164.376 373.397 150.652 356.538 134.000 348.599 C 128.298 345.881 126.456 345.502 119.000 345.514 C 111.750 345.526 109.765 345.917 105.500 348.175 C 98.893 351.672 94.700 356.206 91.405 363.415 C 89.178 368.290 88.702 370.754 88.703 377.415 C 88.706 395.823 98.175 415.209 118.375 438.164 C 122.569 442.930 126.000 447.132 126.000 447.502 C 126.000 448.552 117.841 446.938 114.500 445.228 C 112.850 444.383 104.750 437.296 96.500 429.479 C 88.250 421.663 75.916 410.263 69.092 404.147 C 49.601 386.678 44.492 378.202 45.170 364.461 C 45.836 350.973 53.507 340.218 73.133 325.256 C 83.877 317.066 108.781 303.873 116.529 302.267 C 124.977 300.516 133.405 300.806 139.414 303.054 M 129.000 358.180 C 130.925 359.010 132.838 359.759 133.250 359.845 C 133.663 359.930 134.818 360.788 135.818 361.750 C 136.817 362.713 140.192 365.888 143.318 368.807 C 146.443 371.725 149.000 374.437 149.000 374.834 C 149.000 375.230 150.336 377.017 151.969 378.805 C 153.602 380.593 154.984 382.381 155.039 382.778 C 155.228 384.136 161.381 394.499 162.197 394.835 C 162.646 395.020 162.758 395.582 162.447 396.085 C 162.136 396.588 162.359 397.000 162.941 397.000 C 163.523 397.000 163.909 397.338 163.797 397.750 C 163.422 399.137 166.392 406.000 167.368 406.000 C 167.899 406.000 168.051 406.282 167.706 406.627 C 167.361 406.972 167.736 408.827 168.540 410.749 C 169.343 412.671 170.000 414.583 170.000 414.997 C 170.000 415.411 167.184 415.723 163.742 415.690 C 159.019 415.646 156.077 416.276 151.742 418.260 C 148.584 419.706 146.000 421.364 146.000 421.945 C 146.000 422.525 145.401 423.000 144.670 423.000 C 142.974 423.000 137.287 430.876 135.707 435.411 L 134.500 438.875 129.750 434.382 C 127.138 431.912 125.000 429.505 125.000 429.034 C 125.000 428.563 123.650 427.042 122.000 425.653 C 120.350 424.265 119.000 422.750 119.000 422.287 C 119.000 421.824 117.664 419.983 116.031 418.195 C 114.398 416.407 113.094 414.691 113.133 414.383 C 113.173 414.074 112.261 412.735 111.106 411.407 C 109.952 410.080 109.002 408.772 108.995 408.501 C 108.968 407.452 103.455 396.467 102.665 395.888 C 102.205 395.552 101.917 394.976 102.024 394.610 C 102.131 394.243 101.903 392.943 101.518 391.721 C 100.324 387.937 100.043 385.739 99.823 378.500 C 99.514 368.295 102.649 361.779 109.500 358.387 C 115.170 355.579 122.781 355.499 129.000 358.180 M 167.293 427.250 L 169.984 428.500 169.977 440.500 C 169.970 452.015 168.976 457.005 167.228 454.310 C 166.196 452.718 155.856 447.971 154.818 448.612 C 154.368 448.890 154.000 448.615 154.000 448.000 C 154.000 447.385 153.550 447.160 153.000 447.500 C 152.450 447.840 152.000 447.696 152.000 447.180 C 152.000 446.665 150.650 445.683 149.000 445.000 C 145.618 443.599 145.326 442.203 147.526 437.950 C 148.365 436.328 148.708 435.000 148.288 435.000 C 147.867 435.000 149.206 433.803 151.262 432.340 C 153.318 430.877 155.000 429.401 155.000 429.058 C 155.000 428.716 156.218 428.335 157.706 428.212 C 159.194 428.089 160.859 427.541 161.406 426.994 C 162.717 425.683 164.042 425.740 167.293 427.250 "/></g>
<g fill="#1D1D1BFF" stroke="#1D1D1BFF">
<path d="M 148.581 57.051 C 143.676 58.121 139.442 58.776 139.173 58.507 C 138.904 58.238 138.187 58.430 137.580 58.934 C 136.973 59.437 134.231 59.996 131.488 60.175 C 128.745 60.354 126.275 60.762 126.000 61.083 C 125.169 62.051 104.123 65.194 103.023 64.514 C 102.460 64.166 102.000 64.359 102.000 64.941 C 102.000 65.523 100.722 66.000 99.160 66.000 C 97.598 66.000 92.760 66.955 88.410 68.122 C 84.059 69.289 79.713 70.285 78.750 70.336 C 77.788 70.387 77.000 70.752 77.000 71.147 C 77.000 71.824 73.483 73.344 71.667 73.451 C 71.208 73.478 71.171 73.838 71.583 74.250 C 71.996 74.663 71.808 75.000 71.167 75.000 C 69.082 75.000 68.527 75.331 66.677 77.683 C 65.675 78.957 64.285 80.000 63.588 80.000 C 62.891 80.000 61.782 81.183 61.123 82.629 C 60.464 84.075 59.604 84.938 59.213 84.546 C 58.821 84.154 58.497 84.208 58.494 84.667 C 58.488 85.508 54.078 93.073 53.053 94.000 C 52.749 94.275 52.467 94.950 52.427 95.500 C 52.201 98.619 50.653 105.000 50.122 104.999 C 48.971 104.997 49.958 121.441 51.494 127.833 C 52.331 131.316 52.760 134.579 52.449 135.083 C 52.137 135.587 52.407 136.000 53.048 136.000 C 53.689 136.000 53.955 136.675 53.638 137.500 C 53.322 138.325 53.455 139.000 53.934 139.000 C 55.058 139.000 57.146 144.954 56.429 146.115 C 56.128 146.602 56.270 147.000 56.743 147.000 C 57.217 147.000 58.422 149.363 59.420 152.250 C 60.418 155.138 63.440 161.550 66.136 166.500 C 68.832 171.450 70.991 175.900 70.933 176.388 C 70.876 176.877 71.227 177.552 71.713 177.888 C 73.448 179.090 77.156 185.054 75.997 184.780 C 75.347 184.626 76.021 185.323 77.495 186.330 C 78.968 187.336 79.934 188.399 79.642 188.691 C 79.350 188.983 80.426 190.329 82.032 191.681 C 83.639 193.033 84.852 194.670 84.727 195.319 C 84.602 195.969 85.037 196.396 85.692 196.269 C 86.348 196.142 87.811 197.215 88.942 198.654 C 90.074 200.093 91.000 200.998 91.000 200.665 C 91.000 200.332 92.609 201.152 94.575 202.486 C 101.127 206.933 108.647 209.102 117.421 209.077 C 121.865 209.064 127.027 208.605 128.892 208.056 C 130.758 207.507 132.632 207.273 133.057 207.535 C 133.482 207.798 133.980 207.616 134.165 207.131 C 134.349 206.646 137.225 204.881 140.555 203.209 C 143.886 201.536 149.173 198.080 152.305 195.529 C 155.437 192.978 158.056 191.140 158.125 191.445 C 158.194 191.750 158.327 191.438 158.420 190.750 C 158.514 190.063 159.133 189.613 159.795 189.750 C 160.458 189.888 161.000 189.598 161.000 189.108 C 161.000 188.617 164.825 184.994 169.500 181.058 C 174.175 177.121 178.000 174.078 178.000 174.296 C 178.000 174.514 179.862 172.974 182.138 170.873 C 184.414 168.772 186.733 167.335 187.292 167.681 C 187.857 168.029 188.005 167.818 187.627 167.205 C 187.042 166.258 189.899 163.913 192.250 163.410 C 192.663 163.322 192.714 163.194 192.364 163.125 C 192.015 163.056 195.125 160.322 199.276 157.049 C 203.427 153.776 208.101 149.388 209.662 147.299 C 211.223 145.209 212.840 143.349 213.256 143.165 C 213.672 142.980 213.806 142.494 213.553 142.085 C 213.300 141.676 213.702 139.318 214.447 136.844 C 215.992 131.709 216.847 119.514 215.739 118.406 C 214.212 116.878 215.153 113.328 218.500 108.000 C 220.400 104.975 221.999 102.950 222.054 103.500 C 222.108 104.050 222.318 103.612 222.521 102.527 C 222.723 101.442 223.674 99.980 224.635 99.277 C 225.596 98.575 226.061 98.000 225.668 98.000 C 225.275 98.000 225.710 96.846 226.634 95.435 C 227.616 93.937 228.258 91.130 228.179 88.685 C 228.051 84.711 227.239 79.404 227.077 81.473 C 227.034 82.007 226.343 81.507 225.540 80.360 C 224.737 79.214 222.824 77.806 221.290 77.232 C 219.755 76.657 217.600 75.849 216.500 75.435 C 215.400 75.021 214.065 74.787 213.533 74.914 C 213.001 75.041 208.870 74.620 204.353 73.979 C 196.852 72.914 193.311 71.273 193.071 68.750 C 193.032 68.338 193.000 68.287 193.000 68.637 C 193.000 68.987 190.767 67.185 188.039 64.633 C 185.310 62.081 181.935 59.472 180.539 58.836 C 179.142 58.200 178.000 57.398 178.000 57.054 C 178.000 56.264 176.485 56.072 166.000 55.539 C 159.928 55.230 154.953 55.662 148.581 57.051 M 174.286 67.444 C 176.368 68.444 177.828 69.505 177.531 69.802 C 177.234 70.099 171.711 71.860 165.258 73.715 C 141.787 80.462 126.461 88.417 115.500 99.541 C 107.456 107.705 103.715 115.344 103.192 124.674 C 102.624 134.792 104.854 140.984 111.434 147.564 C 118.779 154.909 125.488 157.311 138.500 157.254 C 155.624 157.178 172.574 150.816 194.278 136.314 C 200.299 132.291 205.352 129.000 205.507 129.000 C 206.185 129.000 204.170 135.770 202.679 138.500 C 200.108 143.208 199.176 144.110 187.500 153.194 C 181.450 157.901 168.625 168.354 159.000 176.422 C 147.325 186.209 139.101 192.285 134.294 194.677 C 117.495 203.032 101.611 198.983 88.503 183.004 C 76.959 168.931 62.908 137.008 60.730 119.907 C 59.808 112.672 59.896 110.257 61.283 104.638 C 64.131 93.095 71.874 84.649 83.814 80.061 C 86.736 78.938 101.361 75.970 116.314 73.466 C 131.266 70.961 147.100 68.063 151.500 67.025 C 160.980 64.789 169.066 64.938 174.286 67.444 M 180.686 102.468 C 181.807 105.907 183.967 109.097 187.703 112.834 C 190.672 115.803 193.352 117.982 193.657 117.676 C 193.963 117.371 195.092 117.940 196.167 118.941 C 198.093 120.735 198.070 120.794 194.561 122.962 C 192.602 124.173 191.000 125.603 191.000 126.141 C 191.000 126.678 190.547 126.838 189.993 126.496 C 189.439 126.153 188.717 126.574 188.388 127.431 C 188.059 128.288 187.384 128.738 186.888 128.431 C 186.392 128.124 185.717 128.574 185.388 129.431 C 185.059 130.288 184.456 130.782 184.047 130.529 C 183.638 130.276 182.343 130.963 181.171 132.055 C 179.998 133.148 178.693 134.092 178.269 134.153 C 176.626 134.390 162.460 141.555 161.765 142.500 C 161.361 143.050 161.024 143.136 161.015 142.691 C 161.007 142.246 160.438 142.233 159.750 142.662 C 159.063 143.091 157.600 143.573 156.500 143.733 C 155.400 143.893 153.825 144.312 153.000 144.665 C 152.175 145.018 150.752 145.217 149.839 145.106 C 148.925 144.995 147.955 145.264 147.683 145.703 C 146.801 147.131 130.720 146.342 126.750 144.676 C 124.688 143.810 123.000 143.283 123.000 143.503 C 123.000 144.614 117.999 138.998 115.873 135.500 C 113.742 131.996 113.521 130.757 114.089 125.500 C 114.866 118.309 115.192 116.929 116.500 115.310 C 123.217 106.993 127.733 102.124 128.781 102.068 C 129.486 102.031 130.321 101.328 130.636 100.506 C 130.952 99.684 131.585 99.243 132.043 99.527 C 132.502 99.810 133.283 99.317 133.778 98.431 C 134.274 97.546 134.864 96.903 135.090 97.003 C 135.919 97.371 141.000 94.652 141.000 93.839 C 141.000 93.378 141.338 93.091 141.750 93.203 C 142.820 93.492 150.000 90.715 150.000 90.012 C 150.000 89.689 150.972 89.352 152.160 89.263 C 153.348 89.173 154.691 88.515 155.145 87.800 C 155.598 87.085 155.976 86.893 155.985 87.372 C 155.993 87.852 156.675 87.685 157.500 87.000 C 158.325 86.315 159.000 86.090 159.000 86.500 C 159.000 86.910 159.604 86.744 160.342 86.131 C 161.080 85.519 161.868 85.197 162.092 85.417 C 162.316 85.636 166.325 84.803 171.000 83.564 L 179.500 81.313 179.283 89.406 C 179.142 94.695 179.628 99.222 180.686 102.468 M 202.700 84.867 C 204.241 84.706 206.071 84.926 206.767 85.356 C 207.464 85.787 209.038 86.062 210.267 85.969 C 213.762 85.703 216.770 87.012 217.297 89.028 C 217.572 90.079 217.155 91.110 216.326 91.428 C 215.527 91.735 215.153 92.439 215.496 92.993 C 215.838 93.547 215.705 94.000 215.201 94.000 C 214.127 94.000 206.873 104.661 206.578 106.673 C 206.467 107.426 206.067 107.733 205.688 107.355 C 205.310 106.976 205.000 107.192 205.000 107.833 C 205.000 109.621 201.550 109.221 198.885 107.124 C 197.573 106.092 196.050 105.192 195.500 105.124 C 194.950 105.056 194.468 104.663 194.429 104.250 C 194.299 102.885 191.690 98.000 191.089 97.998 C 190.099 97.994 190.107 91.719 191.103 87.814 C 191.860 84.843 192.572 84.062 194.771 83.785 C 196.272 83.595 198.040 83.828 198.700 84.301 C 199.359 84.774 201.160 85.029 202.700 84.867 "/></g>
<g fill="#1D1D1BFF" stroke="#1D1D1BFF">
<path d="M 413.655 100.678 C 413.499 100.835 410.025 101.609 405.935 102.399 C 401.846 103.189 394.788 105.211 390.250 106.893 C 385.713 108.574 381.993 109.624 381.985 109.225 C 381.976 108.826 381.639 108.973 381.235 109.551 C 380.831 110.130 378.303 111.427 375.617 112.435 C 372.932 113.442 366.939 116.501 362.299 119.232 C 357.659 121.963 353.106 124.343 352.181 124.522 C 351.257 124.701 350.938 124.881 351.473 124.923 C 352.007 124.966 351.370 125.753 350.057 126.673 C 348.324 127.886 347.909 127.955 348.545 126.923 C 349.028 126.140 347.680 127.190 345.551 129.257 C 343.422 131.323 341.414 132.748 341.090 132.423 C 340.765 132.099 340.500 132.433 340.500 133.167 C 340.500 133.900 339.488 134.944 338.250 135.487 C 337.013 136.030 336.000 137.003 336.000 137.648 C 336.000 138.294 334.615 139.987 332.923 141.411 C 331.231 142.835 330.219 144.014 330.673 144.032 C 331.128 144.049 330.780 144.612 329.901 145.282 C 329.021 145.952 328.265 146.851 328.221 147.281 C 328.047 148.961 325.472 154.000 324.787 154.000 C 324.389 154.000 324.322 154.675 324.638 155.500 C 324.955 156.325 324.689 157.000 324.048 157.000 C 323.407 157.000 323.160 157.450 323.500 158.000 C 323.840 158.550 323.785 159.539 323.378 160.197 C 322.740 161.230 322.741 173.500 323.380 179.507 C 323.756 183.044 331.722 198.360 335.421 202.659 C 337.389 204.946 339.000 207.098 339.000 207.440 C 339.000 207.781 340.590 209.457 342.534 211.164 C 344.477 212.870 345.842 214.491 345.567 214.766 C 345.293 215.041 346.201 216.157 347.587 217.247 C 348.972 218.336 349.819 219.514 349.469 219.864 C 349.120 220.214 349.433 220.520 350.167 220.545 C 350.900 220.570 351.388 221.133 351.250 221.795 C 351.113 222.458 351.421 223.000 351.935 223.000 C 352.988 223.000 369.431 242.560 369.625 244.044 C 369.694 244.570 369.806 244.740 369.875 244.423 C 369.944 244.106 371.165 245.231 372.589 246.923 C 374.013 248.615 374.919 250.000 374.602 250.000 C 373.911 250.000 384.655 260.838 387.557 263.067 C 388.678 263.929 390.085 264.472 390.682 264.273 C 391.279 264.074 392.405 264.547 393.183 265.326 C 394.265 266.407 397.739 266.733 407.945 266.710 C 419.458 266.683 421.465 266.916 422.555 268.406 C 423.250 269.356 424.092 270.089 424.427 270.035 C 425.691 269.832 434.000 275.236 434.000 276.262 C 434.000 276.851 434.284 277.049 434.631 276.702 C 434.979 276.355 436.204 276.730 437.354 277.535 C 440.072 279.439 447.304 279.411 451.033 277.483 C 455.298 275.277 456.705 271.704 458.401 258.773 L 459.915 247.229 466.394 240.718 C 469.958 237.137 472.612 233.946 472.294 233.627 C 471.975 233.308 472.451 232.764 473.351 232.419 C 474.252 232.073 474.740 231.388 474.435 230.895 C 474.131 230.403 474.344 230.000 474.910 230.000 C 475.475 230.000 475.678 229.325 475.362 228.500 C 475.045 227.675 475.172 226.999 475.643 226.998 C 476.114 226.997 476.598 225.598 476.718 223.889 C 476.838 222.180 477.298 220.268 477.740 219.641 C 478.864 218.045 478.536 214.958 476.051 203.745 C 474.862 198.379 474.165 193.542 474.503 192.995 C 474.841 192.448 474.589 192.000 473.942 192.000 C 473.228 192.000 472.954 191.020 473.245 189.500 C 473.508 188.125 473.427 187.000 473.065 187.000 C 472.205 187.000 469.823 173.096 470.496 172.007 C 470.780 171.547 470.639 171.020 470.183 170.835 C 469.129 170.409 465.766 150.188 466.541 148.934 C 466.858 148.420 466.733 148.000 466.262 148.000 C 465.791 148.000 464.890 144.988 464.260 141.307 C 463.614 137.536 461.465 131.315 459.339 127.057 C 457.263 122.901 455.493 119.163 455.407 118.750 C 455.321 118.338 455.194 118.226 455.125 118.503 C 455.056 118.779 453.401 117.236 451.447 115.073 C 447.194 110.365 440.068 105.642 433.957 103.481 C 430.020 102.089 414.401 99.932 413.655 100.678 M 431.244 113.559 C 436.851 115.479 445.063 122.545 448.493 128.399 C 452.432 135.119 453.725 139.886 457.448 161.407 C 459.386 172.610 462.368 188.465 464.075 196.639 C 467.577 213.414 467.698 221.776 464.508 226.602 L 462.592 229.500 461.236 224.500 C 451.411 188.286 438.108 166.594 420.367 157.860 C 399.553 147.613 378.368 159.230 375.040 182.715 C 372.624 199.770 379.899 221.265 396.374 245.750 C 400.538 251.938 403.349 257.000 402.621 257.000 C 400.341 257.000 394.617 254.776 391.740 252.771 C 390.221 251.714 383.625 244.245 377.080 236.174 C 370.536 228.103 359.738 215.200 353.085 207.500 C 344.934 198.068 339.766 191.070 337.244 186.052 C 333.739 179.080 333.501 178.025 333.509 169.552 C 333.517 161.527 333.845 159.876 336.399 155.000 C 343.940 140.603 366.704 125.837 397.919 115.095 C 410.337 110.821 421.723 110.296 431.244 113.559 M 409.848 165.406 C 410.482 165.798 411.450 165.840 412.000 165.500 C 412.550 165.160 413.000 165.306 413.000 165.824 C 413.000 166.343 414.013 167.032 415.250 167.355 C 416.488 167.679 417.500 167.857 417.500 167.751 C 417.500 167.645 419.975 169.899 423.000 172.760 C 426.025 175.620 428.838 177.970 429.250 177.980 C 429.663 177.991 430.000 178.689 430.000 179.531 C 430.000 180.374 430.675 181.322 431.500 181.638 C 432.325 181.955 433.000 182.596 433.000 183.063 C 433.000 183.530 434.335 186.177 435.967 188.944 C 437.599 191.712 439.938 196.345 441.165 199.238 C 442.391 202.132 443.868 204.831 444.447 205.235 C 445.026 205.639 445.182 205.976 444.794 205.985 C 444.180 205.998 445.760 211.500 447.670 216.000 C 448.020 216.825 448.373 217.950 448.453 218.500 C 449.044 222.537 450.367 227.109 451.070 227.543 C 451.533 227.830 451.686 228.656 451.408 229.379 C 451.031 230.363 449.043 230.574 443.507 230.219 C 439.438 229.958 435.297 230.094 434.305 230.522 C 433.312 230.950 431.600 231.471 430.500 231.679 C 429.400 231.887 428.349 232.498 428.165 233.035 C 427.980 233.573 427.464 233.787 427.018 233.511 C 425.883 232.810 415.871 241.983 416.558 243.094 C 416.866 243.592 416.672 244.000 416.126 244.000 C 415.270 244.000 413.698 247.152 413.549 249.167 C 413.437 250.691 412.000 251.201 412.000 249.716 C 412.000 248.827 411.357 247.740 410.571 247.300 C 409.785 246.860 409.027 246.050 408.886 245.500 C 408.478 243.909 397.734 227.578 396.561 226.765 C 395.977 226.361 395.847 226.024 396.270 226.015 C 397.024 226.000 393.331 217.987 392.116 217.000 C 391.777 216.725 391.343 215.600 391.150 214.500 C 390.958 213.400 390.508 212.275 390.150 212.000 C 389.793 211.725 389.427 211.050 389.338 210.500 C 389.249 209.950 388.426 206.598 387.509 203.051 C 385.198 194.111 385.315 182.338 387.769 176.790 C 389.427 173.042 390.970 171.360 397.522 166.159 C 398.084 165.713 399.055 165.518 399.680 165.727 C 400.305 165.935 401.040 165.744 401.312 165.303 C 401.911 164.333 408.235 164.409 409.848 165.406 M 447.811 242.740 C 449.207 244.060 449.260 244.933 448.374 252.000 C 448.063 254.475 447.681 257.850 447.524 259.500 C 447.006 264.949 445.855 267.805 443.980 268.295 C 442.921 268.572 441.891 268.158 441.572 267.326 C 441.265 266.527 440.561 266.153 440.007 266.496 C 439.453 266.838 439.000 266.693 439.000 266.174 C 439.000 265.130 434.894 262.204 432.825 261.774 C 432.100 261.623 430.957 260.825 430.285 260.000 C 429.613 259.175 429.049 258.816 429.032 259.202 C 428.980 260.340 424.410 255.660 423.707 253.750 C 423.332 252.733 423.538 252.000 424.198 252.000 C 424.822 252.000 425.049 251.715 424.701 251.367 C 424.353 251.019 425.206 249.782 426.596 248.617 C 428.046 247.403 428.426 246.713 427.488 247.000 C 426.222 247.387 426.151 247.277 427.176 246.515 C 427.904 245.974 428.725 245.492 429.000 245.444 C 430.397 245.202 435.000 242.596 435.000 242.047 C 435.000 240.869 446.491 241.491 447.811 242.740 "/></g>
<g fill="#FFBE1DFF" stroke="#FFBE1DFF">
<path d="M 149.500 68.140 C 144.550 69.207 128.575 72.098 114.000 74.566 C 85.043 79.467 78.934 81.451 71.156 88.478 C 62.642 96.169 59.135 109.815 61.964 124.245 C 63.946 134.356 72.323 155.719 78.534 166.500 C 88.855 184.418 97.756 193.533 108.260 196.941 C 113.436 198.621 123.215 198.422 128.941 196.520 C 136.075 194.150 141.100 190.610 161.192 173.800 C 171.261 165.376 184.033 154.993 189.574 150.727 C 199.441 143.130 202.946 138.878 204.389 132.755 C 205.001 130.157 204.461 130.389 194.268 137.113 C 181.036 145.841 172.678 150.110 160.711 154.252 C 152.294 157.166 150.421 157.444 138.982 157.471 C 126.821 157.499 126.274 157.406 119.774 154.208 C 98.573 143.776 96.098 118.330 114.470 99.662 C 126.594 87.342 144.295 78.421 170.446 71.449 L 177.392 69.597 173.446 67.825 C 168.400 65.559 161.026 65.656 149.500 68.140 "/></g>
<g fill="#FFBE1DFF" stroke="#FFBE1DFF">
<path d="M 230.479 176.733 C 224.120 179.019 219.956 181.985 215.647 187.299 C 210.427 193.738 208.554 198.190 202.473 218.619 C 199.382 229.003 194.356 245.123 191.304 254.440 C 186.364 269.527 185.816 272.029 186.294 277.306 C 187.019 285.303 188.279 286.202 190.485 280.296 C 199.489 256.194 212.579 236.474 226.275 226.381 C 249.253 209.447 276.246 218.587 280.990 244.906 C 284.295 263.240 272.818 289.155 250.503 313.750 C 244.834 319.998 244.833 320.000 247.720 320.000 C 251.928 320.000 260.675 315.304 263.798 311.368 C 265.284 309.495 275.500 299.548 286.500 289.263 C 317.414 260.359 319.093 258.369 322.523 246.570 C 325.664 235.763 322.033 223.741 312.403 213.066 C 301.808 201.322 274.343 183.846 257.000 177.813 C 248.857 174.980 236.728 174.486 230.479 176.733 "/></g>
<g fill="#FFBE1DFF" stroke="#FFBE1DFF">
<path d="M 406.305 113.448 C 386.721 117.887 357.158 132.928 345.596 144.333 C 334.240 155.536 331.017 167.563 335.757 181.048 C 338.477 188.787 341.055 192.472 355.725 209.587 C 362.838 217.884 373.211 230.321 378.777 237.224 C 384.344 244.127 390.074 250.700 391.511 251.830 C 394.264 253.996 400.807 256.526 401.601 255.733 C 401.857 255.476 398.932 250.594 395.100 244.883 C 387.045 232.878 381.177 221.473 377.329 210.342 C 374.963 203.498 374.611 200.910 374.562 190.000 C 374.510 178.333 374.690 177.127 377.253 171.903 C 384.313 157.519 398.338 150.665 413.018 154.426 C 427.365 158.102 440.857 171.468 450.441 191.500 C 453.947 198.830 460.444 217.517 461.567 223.506 C 462.337 227.608 463.260 227.920 464.777 224.589 C 467.322 219.004 467.158 215.255 463.612 197.898 C 461.657 188.329 458.452 171.352 456.490 160.172 C 452.824 139.290 451.419 134.358 447.206 127.590 C 439.264 114.829 423.798 109.482 406.305 113.448 "/></g>
<g fill="#FFBE1DFF" stroke="#FFBE1DFF">
<path d="M 354.331 322.981 C 352.038 323.469 339.888 327.901 327.331 332.830 C 314.774 337.758 299.100 343.684 292.500 345.997 C 285.900 348.311 279.028 351.313 277.229 352.668 C 273.970 355.125 270.375 359.708 271.122 360.455 C 271.338 360.672 276.151 359.547 281.817 357.956 C 316.245 348.291 344.734 350.969 358.973 365.208 C 376.063 382.298 369.375 407.867 344.766 419.526 C 330.788 426.148 324.114 427.344 299.833 427.577 L 278.165 427.784 280.833 430.339 C 284.792 434.132 289.386 435.682 300.500 436.976 C 309.091 437.977 322.676 439.992 355.483 445.132 C 366.103 446.796 377.415 445.883 384.000 442.831 C 393.637 438.363 398.838 431.852 402.658 419.470 C 404.189 414.507 404.468 410.549 404.310 396.000 C 404.147 380.924 403.710 376.540 401.157 364.345 C 396.569 342.435 389.955 331.061 378.562 325.486 C 372.574 322.557 361.635 321.425 354.331 322.981 "/></g>
<g fill="#FFBE1DFF" stroke="#FFBE1DFF">
<path d="M 115.000 303.549 C 100.899 307.181 72.469 324.690 59.026 338.020 C 48.608 348.351 43.969 359.962 45.956 370.734 C 48.105 382.383 53.168 389.305 71.470 405.615 C 76.954 410.502 88.707 421.287 97.588 429.583 C 110.827 441.950 114.555 444.895 118.291 445.942 C 120.797 446.643 123.324 447.056 123.906 446.859 C 124.487 446.661 121.963 443.125 118.296 439.000 C 103.077 421.879 93.111 405.291 89.458 391.000 C 87.253 382.372 87.833 369.291 90.705 362.878 C 95.768 351.571 106.337 344.591 118.441 344.560 C 127.491 344.537 133.946 346.778 142.855 353.034 C 155.388 361.836 167.099 378.155 176.639 400.114 C 181.736 411.844 182.598 412.231 183.650 403.256 C 184.122 399.231 183.340 395.962 178.561 382.000 C 175.456 372.925 170.193 356.725 166.865 346.000 C 163.538 335.275 159.432 323.889 157.741 320.697 C 153.901 313.454 145.596 305.732 139.357 303.606 C 133.600 301.644 122.494 301.618 115.000 303.549 "/></g>
<g fill="#FFECB6FF" stroke="#FFECB6FF">
<path d="M 110.168 358.089 C 96.819 364.871 96.028 384.252 108.214 406.000 C 112.358 413.396 120.350 424.017 128.055 432.367 L 134.391 439.233 135.674 435.529 C 139.733 423.804 151.337 415.610 163.750 415.703 C 167.188 415.728 170.000 415.433 170.000 415.047 C 170.000 413.854 164.957 401.861 161.790 395.522 C 153.538 379.008 140.528 363.854 130.386 358.945 C 123.510 355.616 115.688 355.285 110.168 358.089 "/></g>
<g fill="#FFECB6FF" stroke="#FFECB6FF">
<path d="M 397.500 166.834 C 389.282 170.742 385.842 177.270 385.842 188.958 C 385.842 203.361 392.093 219.517 405.294 239.234 L 412.481 249.968 414.697 245.607 C 415.916 243.209 418.993 239.415 421.536 237.177 C 427.810 231.654 434.260 229.625 443.629 230.227 C 449.020 230.573 451.000 230.372 451.000 229.480 C 451.000 227.067 445.063 208.350 442.061 201.300 C 435.265 185.338 424.639 171.826 415.500 167.526 C 409.701 164.797 402.375 164.516 397.500 166.834 "/></g>
<g fill="#FFECB6FF" stroke="#FFECB6FF">
<path d="M 301.005 365.536 C 291.363 367.280 274.000 372.037 274.000 372.934 C 274.000 373.315 275.317 374.888 276.927 376.430 C 284.754 383.929 286.847 398.661 281.607 409.371 C 280.059 412.536 279.037 415.370 279.336 415.669 C 280.628 416.961 314.735 416.193 322.000 414.709 C 341.600 410.704 353.135 403.002 356.093 391.943 C 359.316 379.893 350.744 369.149 335.063 365.583 C 326.673 363.674 311.413 363.654 301.005 365.536 "/></g>
<g fill="#FFECB6FF" stroke="#FFECB6FF">
<path d="M 242.500 230.740 C 236.343 232.943 233.968 234.569 227.139 241.253 C 217.942 250.254 210.266 262.719 202.983 280.481 L 199.300 289.461 206.479 289.530 C 218.052 289.640 227.584 295.397 232.900 305.485 C 234.055 307.677 235.000 310.040 235.000 310.735 C 235.000 313.184 236.810 311.938 242.242 305.750 C 265.433 279.333 274.789 254.268 267.091 239.179 C 262.782 230.732 252.440 227.183 242.500 230.740 "/></g>
<g fill="#FFECB6FF" stroke="#FFECB6FF">
<path d="M 168.000 84.440 C 141.110 91.884 122.016 103.941 115.946 117.310 C 112.256 125.437 114.026 136.012 119.877 140.791 C 129.611 148.743 148.414 148.057 167.637 139.049 C 174.583 135.794 198.000 121.478 198.000 120.486 C 198.000 120.323 196.013 119.025 193.584 117.602 C 183.329 111.593 178.546 102.134 179.144 89.050 L 179.500 81.256 168.000 84.440 "/></g>
<g fill="#FFECB6FF" stroke="#FFECB6FF">
<path d="M 201.250 301.662 C 199.618 302.321 199.479 325.079 201.096 326.696 C 202.797 328.397 224.000 318.298 224.000 315.787 C 224.000 307.251 209.583 298.300 201.250 301.662 "/></g>
<g fill="#FFECB6FF" stroke="#FFECB6FF">
<path d="M 158.791 427.988 C 152.780 429.800 146.000 437.385 146.000 442.297 C 146.000 443.843 167.703 454.302 169.109 453.433 C 169.599 453.130 170.000 447.336 170.000 440.558 C 170.000 428.622 169.929 428.214 167.750 427.630 C 164.867 426.858 162.188 426.965 158.791 427.988 "/></g>
<g fill="#FFECB6FF" stroke="#FFECB6FF">
<path d="M 435.500 242.503 C 430.948 244.113 424.000 250.966 424.000 253.845 C 424.000 255.181 426.916 257.633 433.559 261.884 C 438.816 265.248 443.746 268.000 444.513 268.000 C 445.980 268.000 446.310 266.641 447.988 253.678 C 449.379 242.925 449.448 243.218 445.250 242.053 C 440.598 240.761 440.399 240.770 435.500 242.503 "/></g>
<g fill="#FFECB6FF" stroke="#FFECB6FF">
<path d="M 191.000 88.000 C 189.411 93.902 191.242 99.505 196.470 104.733 C 198.817 107.080 201.584 108.989 202.618 108.976 C 204.604 108.951 217.000 91.347 217.000 88.553 C 217.000 87.029 215.672 86.680 203.500 85.004 C 192.266 83.456 192.221 83.467 191.000 88.000 "/></g>
<g fill="#FFECB6FF" stroke="#FFECB6FF">
<path d="M 254.928 388.608 C 249.743 392.679 245.356 396.438 245.181 396.962 C 245.006 397.486 249.882 400.432 256.017 403.508 C 268.507 409.773 268.783 409.753 271.580 402.429 C 273.657 396.991 273.039 391.140 269.904 386.565 C 265.692 380.418 265.290 380.473 254.928 388.608 "/></g>
</svg>
