<?xml version="1.0" encoding="utf-8"?>
<!DOCTYPE svg PUBLIC "-//W3C//DTD SVG 20010904//EN" "http://www.w3.org/TR/2001/REC-SVG-20010904/DTD/svg10.dtd">
<svg version="1.0" xmlns="http://www.w3.org/2000/svg" width="514pt" height="514pt" viewBox="0 0 514 514" style="" preserveAspectRatio="xMidYMid meet">
<g fill="#FABE2CFF" stroke="#FABE2CFF">
<path d="M 308.052 127.640 C 276.312 133.458 236.661 151.398 199.661 176.681 C 193.700 180.754 188.300 184.522 187.661 185.054 C 187.022 185.585 183.043 188.646 178.817 191.856 L 171.134 197.692 172.862 200.596 C 176.193 206.196 179.796 215.696 181.508 223.392 C 184.046 234.800 183.212 252.689 179.638 263.500 C 178.183 267.900 163.759 299.400 147.583 333.500 C 131.408 367.600 118.472 395.422 118.837 395.328 C 119.634 395.120 199.591 357.289 202.328 355.825 C 204.076 354.889 203.739 354.294 198.389 348.888 L 192.538 342.975 202.762 332.750 L 212.987 322.525 222.744 332.136 L 232.500 341.747 239.831 338.312 C 251.659 332.770 260.771 330.763 274.000 330.787 C 287.830 330.811 297.809 333.101 309.250 338.874 C 313.513 341.025 317.000 342.274 317.000 341.649 C 317.000 341.023 303.272 326.779 286.494 309.994 L 255.988 279.476 266.500 269.000 L 277.012 258.524 306.326 287.826 L 335.640 317.127 338.201 313.314 C 347.977 298.758 357.962 281.943 364.455 269.100 L 367.185 263.701 343.356 239.855 L 319.526 216.010 329.999 205.501 L 340.473 194.992 359.699 214.199 C 370.274 224.764 379.126 233.203 379.371 232.954 C 380.471 231.832 385.028 214.092 386.542 205.040 C 388.190 195.181 388.206 175.693 386.571 168.583 C 384.218 158.351 378.452 147.697 371.813 141.315 C 365.453 135.200 354.479 129.612 344.500 127.407 C 337.938 125.957 316.485 126.094 308.052 127.640 "/></g>
<g fill="#66BB00FF" stroke="#66BB00FF">
<path d="M 99.082 223.786 C 71.902 251.129 49.301 274.297 48.856 275.272 C 48.412 276.247 47.362 277.308 46.524 277.629 C 45.686 277.951 45.000 278.855 45.000 279.638 C 45.000 280.422 44.325 281.322 43.500 281.638 C 42.675 281.955 42.000 282.756 42.000 283.418 C 42.000 284.081 41.155 285.530 40.122 286.638 C 39.090 287.747 37.934 289.632 37.555 290.827 C 37.176 292.022 36.419 293.000 35.874 293.000 C 35.328 293.000 35.160 293.450 35.500 294.000 C 35.840 294.550 35.566 295.000 34.892 295.000 C 34.218 295.000 33.947 295.281 34.290 295.624 C 34.634 295.967 33.947 298.104 32.765 300.374 C 31.583 302.643 30.521 305.036 30.405 305.690 C 29.960 308.204 27.700 314.550 26.878 315.592 C 26.405 316.193 26.284 316.950 26.609 317.275 C 26.934 317.601 26.839 318.451 26.397 319.166 C 25.571 320.504 25.338 321.651 24.507 328.500 C 23.833 334.051 23.806 353.758 24.466 358.000 C 25.316 363.455 25.841 366.291 26.505 369.000 C 26.841 370.375 27.281 372.175 27.482 373.000 C 27.683 373.825 27.938 374.613 28.048 374.750 C 28.159 374.888 28.363 375.450 28.500 376.000 C 28.638 376.550 28.863 377.225 29.000 377.500 C 29.138 377.775 29.322 378.338 29.410 378.750 C 29.499 379.163 30.102 380.453 30.750 381.619 C 31.399 382.784 31.645 384.021 31.298 384.369 C 30.951 384.716 31.093 385.000 31.613 385.000 C 32.134 385.000 33.433 387.250 34.500 390.000 C 35.567 392.750 36.818 395.000 37.279 395.000 C 37.741 395.000 37.840 395.450 37.500 396.000 C 37.160 396.550 37.359 397.000 37.941 397.000 C 38.523 397.000 39.000 397.675 39.000 398.500 C 39.000 399.325 39.450 400.000 40.000 400.000 C 40.550 400.000 41.000 400.675 41.000 401.500 C 41.000 402.325 41.450 403.000 42.000 403.000 C 45.413 403.000 40.594 408.891 21.755 427.745 L 0.511 449.007 32.755 481.251 L 64.999 513.495 86.384 491.998 L 107.769 470.500 91.326 454.567 L 74.883 438.635 53.939 459.561 L 32.995 480.487 17.251 464.743 L 1.507 448.999 22.620 427.886 L 43.734 406.772 59.315 422.636 L 74.895 438.500 96.362 417.094 C 108.169 405.321 118.236 394.746 118.734 393.594 C 119.232 392.442 121.725 387.225 124.274 382.000 C 126.822 376.775 128.912 372.154 128.917 371.731 C 128.922 371.308 131.003 366.939 133.543 362.022 C 136.082 357.105 138.107 352.830 138.043 352.522 C 137.978 352.214 140.003 347.939 142.543 343.022 C 145.082 338.105 147.107 333.830 147.043 333.522 C 146.978 333.214 149.003 328.939 151.543 324.022 C 154.082 319.105 156.120 314.837 156.072 314.537 C 156.024 314.237 158.016 309.946 160.500 305.000 C 162.984 300.054 165.049 295.669 165.090 295.254 C 165.131 294.839 167.256 290.450 169.812 285.500 C 172.369 280.550 174.405 276.275 174.338 276.000 C 174.270 275.725 175.052 273.859 176.075 271.852 C 182.364 259.526 184.656 235.940 180.886 222.345 C 179.842 218.580 178.962 215.275 178.930 215.000 C 178.898 214.725 178.001 212.530 176.936 210.123 C 175.871 207.715 175.000 205.165 175.000 204.456 C 175.000 203.747 174.663 203.017 174.250 202.833 C 173.484 202.493 168.000 194.397 168.000 193.606 C 168.000 192.352 150.501 173.987 149.352 174.036 C 148.884 174.056 126.262 196.444 99.082 223.786 "/></g>
<g fill="#288C64FF" stroke="#288C64FF">
<path d="M 260.335 332.096 C 251.286 333.608 240.828 338.154 179.000 367.455 L 118.500 396.127 97.010 417.557 L 75.520 438.986 86.510 450.072 C 101.492 465.185 111.573 473.077 123.459 478.996 C 160.149 497.269 203.223 493.221 234.897 468.521 C 237.979 466.118 262.910 441.706 290.300 414.272 L 340.101 364.392 330.786 355.381 C 316.963 342.008 305.464 335.818 288.162 332.435 C 280.185 330.875 268.499 330.733 260.335 332.096 "/></g>
<g fill="#9CDD05FF" stroke="#9CDD05FF">
<path d="M 307.000 1.654 C 265.324 4.428 224.525 20.442 194.258 45.907 C 190.275 49.258 186.788 52.000 186.508 52.000 C 186.229 52.000 186.000 46.375 186.000 39.500 L 186.000 27.000 171.000 27.000 L 156.000 27.000 156.000 66.500 L 156.000 106.000 195.000 106.000 L 234.000 106.000 234.000 91.000 L 234.000 76.000 219.250 75.957 L 204.500 75.913 210.000 70.910 C 228.734 53.866 258.464 39.396 286.272 33.787 C 301.421 30.731 332.242 30.519 347.500 33.365 C 378.537 39.155 408.497 54.150 430.026 74.670 L 434.552 78.984 445.026 68.420 L 455.500 57.856 450.000 52.865 C 420.498 26.097 383.783 8.719 345.871 3.579 C 334.400 2.024 315.503 1.088 307.000 1.654 "/></g>
<g fill="#66BB00FF" stroke="#66BB00FF">
<path d="M 392.000 313.000 L 392.000 328.000 404.750 328.116 C 411.763 328.180 416.713 328.438 415.750 328.689 C 414.788 328.941 414.000 329.527 414.000 329.992 C 414.000 331.012 406.811 335.589 405.750 335.244 C 405.338 335.110 405.000 335.450 405.000 336.000 C 405.000 336.550 404.325 337.000 403.500 337.000 C 402.675 337.000 402.000 337.477 402.000 338.059 C 402.000 338.641 401.588 338.864 401.085 338.553 C 400.582 338.242 400.020 338.347 399.835 338.787 C 399.308 340.045 383.269 347.936 382.600 347.266 C 382.270 346.936 382.000 347.192 382.000 347.833 C 382.000 348.475 381.663 348.904 381.250 348.788 C 380.838 348.671 379.522 349.118 378.326 349.782 C 377.130 350.446 375.105 351.183 373.826 351.420 C 372.547 351.657 371.388 351.941 371.250 352.051 C 371.113 352.160 370.550 352.363 370.000 352.500 C 369.450 352.638 368.775 352.863 368.500 353.000 C 368.225 353.138 367.663 353.345 367.250 353.461 C 366.838 353.578 365.825 353.958 365.000 354.307 C 364.175 354.657 362.375 355.157 361.000 355.420 C 359.625 355.683 357.375 356.181 356.000 356.528 C 350.485 357.918 343.225 359.117 339.750 359.212 C 336.666 359.296 336.280 360.157 338.500 362.000 C 339.325 362.685 340.000 363.746 340.000 364.359 C 340.000 364.971 334.311 371.174 327.358 378.142 L 314.716 390.812 325.108 390.376 C 339.712 389.762 346.911 388.948 354.814 387.016 C 357.187 386.436 359.518 386.202 359.995 386.497 C 360.472 386.792 361.163 386.545 361.532 385.948 C 361.901 385.352 362.817 385.100 363.569 385.388 C 364.321 385.677 365.221 385.452 365.569 384.888 C 365.917 384.325 366.817 384.100 367.569 384.388 C 368.321 384.677 369.206 384.475 369.537 383.940 C 369.868 383.405 370.526 383.207 371.000 383.500 C 371.474 383.793 372.163 383.545 372.532 382.948 C 372.901 382.352 373.788 382.088 374.503 382.363 C 375.219 382.638 376.111 382.556 376.486 382.181 C 376.860 381.806 377.579 381.444 378.083 381.375 C 378.588 381.306 379.225 381.138 379.500 381.000 C 379.775 380.863 380.338 380.678 380.750 380.590 C 381.163 380.501 382.400 379.928 383.500 379.315 C 384.600 378.702 386.400 378.043 387.500 377.850 C 388.600 377.658 389.765 377.140 390.090 376.700 C 390.414 376.260 391.652 375.827 392.840 375.737 C 394.028 375.648 395.000 375.220 395.000 374.787 C 395.000 374.354 395.338 374.089 395.750 374.197 C 396.163 374.305 400.325 372.417 405.000 370.000 C 409.675 367.583 413.838 365.695 414.250 365.803 C 414.663 365.911 415.000 365.580 415.000 365.067 C 415.000 364.554 415.978 363.824 417.173 363.445 C 418.368 363.066 420.236 361.926 421.325 360.912 C 422.413 359.899 423.685 359.305 424.151 359.594 C 424.618 359.882 425.000 359.641 425.000 359.059 C 425.000 358.477 425.427 358.000 425.948 358.000 C 426.470 358.000 428.111 356.875 429.595 355.500 C 431.078 354.125 432.901 353.000 433.646 353.000 C 434.391 353.000 435.000 352.536 435.000 351.969 C 435.000 351.401 435.788 350.642 436.750 350.281 C 437.713 349.919 439.048 348.921 439.718 348.062 C 440.692 346.814 440.943 349.469 440.968 361.277 L 441.000 376.053 455.750 375.777 L 470.500 375.500 470.762 336.750 L 471.023 298.000 431.512 298.000 L 392.000 298.000 392.000 313.000 "/></g>
<g fill="#66BB00FF" stroke="#66BB00FF">
<path d="M 453.922 56.310 C 455.221 57.963 454.441 59.027 444.948 68.552 L 434.552 78.984 429.980 74.742 C 427.465 72.409 429.253 74.354 433.954 79.065 C 438.654 83.775 443.625 89.077 445.000 90.846 C 446.375 92.615 448.172 94.801 448.994 95.704 C 449.815 96.606 450.940 98.088 451.494 98.997 C 453.638 102.520 458.975 110.554 459.868 111.604 C 460.919 112.841 470.406 132.500 469.952 132.500 C 469.793 132.500 470.285 133.625 471.046 135.000 C 471.807 136.375 472.501 137.838 472.590 138.250 C 472.678 138.663 472.840 139.113 472.949 139.250 C 473.059 139.388 473.346 140.569 473.587 141.876 C 473.829 143.183 474.678 145.658 475.476 147.376 C 476.273 149.094 477.191 151.850 477.515 153.500 C 478.226 157.113 478.428 157.912 479.284 160.500 C 479.648 161.600 480.201 164.300 480.513 166.500 C 480.824 168.700 481.363 172.525 481.710 175.000 C 482.582 181.212 482.589 210.503 481.720 216.000 C 481.329 218.475 480.835 221.625 480.624 223.000 C 479.192 232.294 477.663 239.090 476.896 239.564 C 476.403 239.869 476.000 241.351 476.000 242.859 C 476.000 244.367 475.511 246.089 474.913 246.687 C 474.130 247.470 474.130 247.962 474.913 248.446 C 475.511 248.816 476.000 248.811 476.000 248.437 C 476.000 248.062 476.675 248.315 477.500 249.000 C 478.325 249.685 479.000 249.910 479.000 249.500 C 479.000 249.090 479.675 249.315 480.500 250.000 C 481.325 250.685 482.000 250.910 482.000 250.500 C 482.000 250.090 482.675 250.315 483.500 251.000 C 484.325 251.685 485.000 251.910 485.000 251.500 C 485.000 251.090 485.675 251.315 486.500 252.000 C 487.325 252.685 488.000 252.910 488.000 252.500 C 488.000 252.090 488.675 252.315 489.500 253.000 C 490.325 253.685 491.000 253.910 491.000 253.500 C 491.000 253.090 491.675 253.315 492.500 254.000 C 493.325 254.685 494.000 254.910 494.000 254.500 C 494.000 254.090 494.675 254.315 495.500 255.000 C 496.325 255.685 497.000 255.910 497.000 255.500 C 497.000 255.090 497.675 255.315 498.500 256.000 C 499.325 256.685 500.000 256.910 500.000 256.500 C 500.000 256.090 500.656 256.300 501.459 256.966 C 502.666 257.968 503.035 257.687 503.597 255.338 C 503.971 253.777 504.540 252.050 504.863 251.500 C 505.185 250.950 505.602 249.386 505.789 248.025 C 505.976 246.664 506.546 245.047 507.056 244.433 C 507.566 243.819 507.769 243.103 507.508 242.842 C 507.248 242.581 507.502 240.822 508.073 238.934 C 508.644 237.045 509.309 234.150 509.550 232.500 C 509.790 230.850 510.222 228.375 510.510 227.000 C 511.929 220.205 512.353 212.906 512.340 195.500 C 512.328 178.103 511.959 171.961 510.508 165.000 C 510.222 163.625 509.790 161.150 509.550 159.500 C 509.309 157.850 508.644 154.955 508.073 153.066 C 507.502 151.178 507.248 149.419 507.508 149.158 C 507.769 148.897 507.579 148.193 507.085 147.592 C 506.592 146.991 505.971 145.150 505.706 143.500 C 505.441 141.850 504.265 137.800 503.092 134.500 C 501.919 131.200 500.769 127.711 500.536 126.746 C 500.304 125.782 499.757 124.432 499.322 123.746 C 498.887 123.061 498.505 122.275 498.473 122.000 C 498.442 121.725 497.638 120.042 496.688 118.260 C 495.737 116.479 494.948 114.801 494.934 114.531 C 494.868 113.267 489.487 102.355 488.381 101.244 C 487.694 100.553 486.821 99.013 486.443 97.821 C 486.065 96.629 485.359 95.169 484.875 94.577 C 482.684 91.895 476.909 83.306 476.082 81.500 C 475.579 80.400 473.892 78.071 472.333 76.324 C 470.775 74.577 468.150 71.487 466.500 69.457 C 464.850 67.427 461.025 63.231 458.000 60.133 C 454.975 57.035 453.140 55.315 453.922 56.310 "/></g>
<g fill="#9CDD05FF" stroke="#9CDD05FF">
<path d="M 22.500 428.000 L 1.513 449.005 17.254 464.746 L 32.995 480.487 53.958 459.542 L 74.921 438.597 59.710 423.049 C 51.345 414.497 44.272 407.386 43.993 407.248 C 43.715 407.109 34.043 416.448 22.500 428.000 "/></g>
<g fill="#FF9100FF" stroke="#FF9100FF">
<path d="M 266.238 269.262 L 256.011 279.523 286.779 310.279 L 317.546 341.035 325.461 330.267 C 329.814 324.345 333.821 318.908 334.365 318.184 C 335.109 317.194 328.177 309.687 306.434 287.934 C 290.527 272.020 277.277 259.000 276.989 259.000 C 276.700 259.000 271.862 263.618 266.238 269.262 "/></g>
<g fill="#FF9100FF" stroke="#FF9100FF">
<path d="M 330.000 205.500 L 319.521 216.015 343.152 239.647 L 366.783 263.278 368.982 258.389 C 370.191 255.700 372.947 249.008 375.105 243.518 L 379.030 233.536 359.754 214.261 L 340.479 194.985 330.000 205.500 "/></g>
<g fill="#9CDD05FF" stroke="#9CDD05FF">
<path d="M 127.104 158.250 C 125.942 164.438 124.551 174.900 124.012 181.500 C 122.349 201.858 121.146 201.321 135.764 186.736 C 142.784 179.731 148.936 174.000 149.435 174.000 C 149.934 174.000 151.165 174.745 152.171 175.655 C 153.895 177.215 154.001 177.171 154.017 174.905 C 154.026 173.582 154.871 168.450 155.894 163.500 C 156.917 158.550 157.600 154.328 157.411 154.117 C 156.861 153.504 132.669 147.035 130.858 147.017 C 129.556 147.003 128.780 149.325 127.104 158.250 "/></g>
<g fill="#FF9100FF" stroke="#FF9100FF">
<path d="M 202.506 332.994 L 192.550 342.987 198.418 348.918 L 204.287 354.848 209.393 352.533 C 212.202 351.261 218.493 348.322 223.374 346.003 L 232.249 341.787 222.894 332.394 C 217.749 327.227 213.297 323.000 213.001 323.000 C 212.705 323.000 207.982 327.497 202.506 332.994 "/></g>
<g fill="#69B40011" stroke="#69B40011">
<path d="M 391.440 298.296 C 391.166 299.009 391.081 306.096 391.251 314.046 L 391.559 328.500 391.780 313.261 L 392.000 298.023 431.750 297.750 L 471.500 297.476 431.719 297.238 C 399.892 297.048 391.838 297.259 391.440 298.296 "/></g>
<g fill="#409E3D9B" stroke="#409E3D9B">
<path d="M 278.000 426.993 L 242.500 462.513 278.000 426.993 L 313.500 391.474 278.000 426.993 "/></g>
<g fill="#66BA0073" stroke="#66BA0073">
<path d="M 88.000 234.993 L 53.500 269.513 88.000 234.993 L 122.500 200.473 88.000 234.993 "/></g>
<g fill="#45A235FF" stroke="#45A235FF">
<path d="M 96.500 417.489 L 75.500 438.520 96.500 417.489 L 117.500 396.457 96.500 417.489 "/></g>
<g fill="#69B40011" stroke="#69B40011">
<path d="M 48.000 497.000 L 64.000 513.000 48.000 497.000 L 32.000 481.000 48.000 497.000 "/></g>
<g fill="#96E10011" stroke="#96E10011">
<path d="M 16.500 465.500 L 32.000 481.000 16.500 465.500 L 1.000 450.000 16.500 465.500 "/></g>
<g fill="#45A235FF" stroke="#45A235FF">
<path d="M 327.000 377.981 L 314.500 390.531 327.000 377.981 L 339.500 365.432 327.000 377.981 "/></g>
<g fill="#66BB00FF" stroke="#66BB00FF">
<path d="M 391.302 48.315 L 398.103 51.500 392.080 48.250 C 388.767 46.463 385.707 45.029 385.279 45.065 C 384.850 45.101 387.561 46.563 391.302 48.315 "/></g>
<g fill="#66BB00FF" stroke="#66BB00FF">
<path d="M 242.663 48.799 L 237.826 51.500 243.514 49.034 C 246.642 47.677 248.818 46.462 248.351 46.333 C 247.883 46.204 245.323 47.314 242.663 48.799 "/></g>
<g fill="#66BB00FF" stroke="#66BB00FF">
<path d="M 405.308 21.816 L 411.116 24.500 406.091 21.750 C 403.328 20.238 400.714 19.030 400.283 19.066 C 399.852 19.102 402.114 20.340 405.308 21.816 "/></g>
<g fill="#66BB00FF" stroke="#66BB00FF">
<path d="M 229.663 21.799 L 224.826 24.500 230.514 22.034 C 233.642 20.677 235.818 19.462 235.351 19.333 C 234.883 19.204 232.323 20.314 229.663 21.799 "/></g>
<g fill="#409E3D9B" stroke="#409E3D9B">
<path d="M 331.500 355.500 L 336.000 360.000 331.500 355.500 L 327.000 351.000 331.500 355.500 "/></g>
<g fill="#66BA0073" stroke="#66BA0073">
<path d="M 157.500 181.500 L 161.000 185.000 157.500 181.500 L 154.000 178.000 157.500 181.500 "/></g>
</svg>
